<?xml version="1.0" encoding="utf-8"?>
<!-- Generator: Adobe Illustrator 25.2.1, SVG Export Plug-In . SVG Version: 6.00 Build 0)  -->
<svg version="1.1" id="Layer_1" xmlns="http://www.w3.org/2000/svg" xmlns:xlink="http://www.w3.org/1999/xlink" x="0px" y="0px"
	 viewBox="0 0 512 512" style="enable-background:new 0 0 512 512;" xml:space="preserve">
<style type="text/css">
	.st0{fill:#EBEEF1;}
</style>
<path class="st0" d="M320,160H192c-17.7,0-32,14.3-32,32v128c0,17.7,14.3,32,32,32h128c17.7,0,32-14.3,32-32V192
	C352,174.3,337.7,160,320,160z M304,304h-96v-96h96V304z M488,280c13.3,0,24-10.7,24-24s-10.8-24-24-24h-40v-48h40
	c13.3,0,24-10.7,24-24s-10.8-24-24-24h-40v-8c0-35.3-28.6-64-64-64h-8V24c0-13.2-10.7-24-24-24s-24,10.8-24,24v40h-48V24
	c0-13.2-10.7-24-24-24s-24,10.8-24,24v40h-48V24c0-13.2-10.7-24-24-24s-24,10.8-24,24v40h-8c-35.3,0-64,28.7-64,64v8H24
	c-13.2,0-24,10.8-24,24s10.8,24,24,24h40v48H24c-13.2,0-24,10.8-24,24c0,13.2,10.8,24,24,24h40v48H24c-13.2,0-24,10.8-24,24
	s10.8,24,24,24h40v8c0,35.4,28.7,64,64,64h8v40c0,13.3,10.8,24,24,24s24-10.8,24-24v-40h48v40c0,13.3,10.8,24,24,24
	c13.2,0,24-10.8,24-24v-40h48v40c0,13.2,10.8,24,24,24s24-10.8,24-24v-40h8c35.4,0,64-28.6,64-64v-8h40c13.2,0,24-10.8,24-24
	s-10.8-24-24-24h-40v-48H488z M400,384c0,8.8-7.2,16-16,16H128c-8.8,0-16-7.2-16-16V128c0-8.8,7.2-16,16-16h256c8.8,0,16,7.2,16,16
	V384z"/>
</svg>
