<?xml version="1.0" encoding="utf-8"?>
<!-- Generator: Adobe Illustrator 25.2.1, SVG Export Plug-In . SVG Version: 6.00 Build 0)  -->
<svg version="1.1" id="Layer_1" xmlns="http://www.w3.org/2000/svg" xmlns:xlink="http://www.w3.org/1999/xlink" x="0px" y="0px"
	 viewBox="0 0 640 512" style="enable-background:new 0 0 640 512;" xml:space="preserve">
<style type="text/css">
	.st0{fill:#EBEEF1;}
</style>
<path class="st0" d="M543.3,214.5c0.2-2.2,0.7-4.3,0.7-6.5c0-61.9-50.1-112-112-112c-11.4,0-22.2,2.2-32.6,5.4
	C368.9,59.5,319.8,32,264,32c-93.2,0-168.6,75.9-167.9,168.8C40.2,220.6,0,273.4,0,336c0,79.5,64.5,144,144,144h360
	c75.1,0,136-60.9,136-136C640,282.7,599.1,231.4,543.3,214.5z M504,432H144c-52.9,0-96-43.1-96-96c0-40.2,25.8-76.4,64.1-90
	l32.2-11.4c-0.3-38.6-0.2-33.2-0.3-37.2c1.4-65,54.7-117.4,120-117.4c38.4,0,73.6,18.1,96.7,49.7l20.1,27.6l32.7-10
	c48.9-14.9,84.2,25.6,82,64.4l-2.2,37.7l36.1,11c37.4,11.4,62.6,45,62.6,83.6C592,392.5,552.5,432,504,432z"/>
</svg>
