<?xml version="1.0" encoding="utf-8"?>
<!-- Generator: Adobe Illustrator 25.2.1, SVG Export Plug-In . SVG Version: 6.00 Build 0)  -->
<svg version="1.1" id="Layer_1" xmlns="http://www.w3.org/2000/svg" xmlns:xlink="http://www.w3.org/1999/xlink" x="0px" y="0px"
	 viewBox="0 0 384 512" style="enable-background:new 0 0 384 512;" xml:space="preserve">
<style type="text/css">
	.st0{fill:#EBEEF1;}
</style>
<path class="st0" d="M256,177.3v-34.6c0-4.6-3.7-8.3-8.3-8.3h-30.1v-30.1c0-4.6-3.7-8.3-8.3-8.3h-34.6c-4.6,0-8.3,3.7-8.3,8.3v30.1
	h-30.1c-4.6,0-8.3,3.7-8.3,8.3v34.6c0,4.6,3.7,8.3,8.3,8.3h30.1v30.1c0,4.6,3.7,8.3,8.3,8.3h34.6c4.6,0,8.3-3.7,8.3-8.3v-30.1h30.1
	C252.3,185.6,256,181.9,256,177.3z M148,288h-40c-6.6,0-12,5.4-12,12v40c0,6.6,5.4,12,12,12h40c6.6,0,12-5.4,12-12v-40
	C160,293.4,154.6,288,148,288z M148,384h-40c-6.6,0-12,5.4-12,12v40c0,6.6,5.4,12,12,12h40c6.6,0,12-5.4,12-12v-40
	C160,389.4,154.6,384,148,384z M320,0H64C28.6,0,0,28.6,0,64v424c0,13.3,10.8,24,24,24s24-10.8,24-24V64c0-8.8,7.2-16,16-16h256
	c8.8,0,16,7.2,16,16v424c0,13.2,10.8,24,24,24s24-10.7,24-24V64C384,28.6,355.3,0,320,0z M276,288h-40c-6.6,0-12,5.4-12,12v40
	c0,6.6,5.4,12,12,12h40c6.6,0,12-5.4,12-12v-40C288,293.4,282.6,288,276,288z M276,384h-40c-6.6,0-12,5.4-12,12v40
	c0,6.6,5.4,12,12,12h40c6.6,0,12-5.4,12-12v-40C288,389.4,282.6,384,276,384z"/>
</svg>
