<?xml version="1.0" encoding="utf-8"?>
<!-- Generator: Adobe Illustrator 25.2.1, SVG Export Plug-In . SVG Version: 6.00 Build 0)  -->
<svg version="1.1" id="Layer_1" xmlns="http://www.w3.org/2000/svg" xmlns:xlink="http://www.w3.org/1999/xlink" x="0px" y="0px"
	 viewBox="0 0 448 512" style="enable-background:new 0 0 448 512;" xml:space="preserve">
<style type="text/css">
	.st0{fill:#EBEEF1;}
</style>
<path class="st0" d="M384,192h-32v-64.9C352,56.5,294.6,0,224,0S96,57.4,96,127.1V192H64c-35.3,0-64,28.7-64,64v191.1
	c0,35.4,28.6,64,64,64h320c35.4,0,64-28.6,64-64V256C448,220.7,419.3,192,384,192z M144,128c0-44.1,35.9-80,80-80s80,35.9,80,80v64
	H144V128z M400,448c0,8.8-7.2,16-16,16H64c-8.8,0-16-7.2-16-16V256c0-8.8,7.2-16,16-16h320c8.8,0,16,7.2,16,16V448z M224,304
	c-13.2,0-24,10.8-24,24v48c0,13.2,10.8,23.1,24,23.1s24-9.8,24-23.1v-48C248,314.8,237.3,304,224,304z"/>
</svg>
