<?xml version="1.0" encoding="utf-8"?>
<!-- Generator: Adobe Illustrator 25.2.1, SVG Export Plug-In . SVG Version: 6.00 Build 0)  -->
<svg version="1.1" id="Layer_1" xmlns="http://www.w3.org/2000/svg" xmlns:xlink="http://www.w3.org/1999/xlink" x="0px" y="0px"
	 viewBox="0 0 512 512" style="enable-background:new 0 0 512 512;" xml:space="preserve">
<style type="text/css">
	.st0{fill:#EBEEF1;}
</style>
<path class="st0" d="M448,32H64C28.6,32,0,60.7,0,96v64c0,35.4,28.6,64,64,64h384c35.4,0,64-28.6,64-64V96C512,60.7,483.3,32,448,32
	z M464,160c0,8.8-7.2,16-16,16H64c-8.8,0-16-7.2-16-16V96c0-8.8,7.2-16,16-16h384c8.8,0,16,7.2,16,16V160z M448,288H64
	c-35.3,0-64,28.6-64,64v64c0,35.4,28.6,64,64,64h384c35.4,0,64-28.6,64-64v-64C512,316.7,483.3,288,448,288z M464,416
	c0,8.8-7.2,16-16,16H64c-8.8,0-16-7.2-16-16v-64c0-8.8,7.2-16,16-16h384c8.8,0,16,7.2,16,16V416z M352,104c-13.2,0-24,10.7-24,24
	c0,13.2,10.8,24,24,24s24-10.7,24-24S365.3,104,352,104z M416,104c-13.2,0-24,10.7-24,24c0,13.2,10.8,24,24,24s24-10.7,24-24
	S429.3,104,416,104z M352,360c-13.2,0-24,10.7-24,24c0,13.2,10.8,24,24,24s24-10.8,24-24C376,370.7,365.3,360,352,360z M416,360
	c-13.2,0-24,10.7-24,24c0,13.2,10.8,24,24,24s24-10.8,24-24C440,370.7,429.3,360,416,360z"/>
</svg>
