<?xml version="1.0" encoding="utf-8"?>
<!-- Generator: Adobe Illustrator 25.2.1, SVG Export Plug-In . SVG Version: 6.00 Build 0)  -->
<svg version="1.1" id="Layer_1" xmlns="http://www.w3.org/2000/svg" xmlns:xlink="http://www.w3.org/1999/xlink" x="0px" y="0px"
	 viewBox="0 0 640 512" style="enable-background:new 0 0 640 512;" xml:space="preserve">
<style type="text/css">
	.st0{fill:#EBEEF1;}
</style>
<path class="st0" d="M576,192h-80v0.7c-26.8-20.2-59.8-32.7-96-32.7c-35.8,0-68.5,12.2-95.1,32H64c-35.3,0-64,28.7-64,64v128
	c0,35.4,28.6,64,64,64h16v40c0,13.3,10.8,24,24,24s24-10.7,24-24v-40h176.9c26.6,19.8,59.3,32,95.1,32c36.2,0,69.2-12.5,96-32.7v0.7
	h16v40c0,13.2,10.8,24,24,24s24-10.8,24-24v-40h16c35.3,0,64-28.6,64-64V255.1C640,220.7,611.3,192,576,192z M262.2,400H64
	c-8.8,0-16-7.2-16-16V256c0-8.8,7.2-16,16-16h198.2c-13.8,23.6-22.2,50.7-22.2,80S248.4,376.4,262.2,400z M400,432
	c-61.8,0-112-50.2-112-112c0-61.8,50.2-112,112-112s112,50.2,112,112S461.8,432,400,432z M592,384c0,8.8-7.2,16-16,16h-38.2
	c13.8-23.6,22.2-50.7,22.2-80s-8.4-56.4-22.2-80H576c8.8,0,16,7.2,16,16V384z M400,128c13.2,0,24-10.8,24-24V24
	c0-13.2-10.7-24-24-24s-24,10.8-24,24v80C376,117.3,386.8,128,400,128z M496,136c6.2,0,12.3-2.3,17-7l56-56c9.4-9.4,9.4-24.6,0-33.9
	s-24.6-9.4-33.9,0l-56,56c-9.4,9.4-9.4,24.6,0,33.9C483.7,133.7,489.8,136,496,136z M287,128.1c4.7,5.6,10.8,7.9,17,7.9
	s12.3-2.3,17-7c9.4-9.4,9.4-24.6,0-33.9l-56-56c-9.4-9.4-24.6-9.4-33.9,0s-9.4,24.6,0,33.9L287,128.1z M104,296
	c-13.2,0-24,10.7-24,24c0,13.2,10.8,24,24,24c13.3,0,24-10.7,24-24S117.3,296,104,296z M184,296c-13.3,0-24,10.7-24,24
	c0,13.2,10.8,24,24,24c13.3,0,24-10.8,24-24C208,306.7,197.3,296,184,296z"/>
</svg>
