<?xml version="1.0" encoding="utf-8"?>
<!-- Generator: Adobe Illustrator 25.2.1, SVG Export Plug-In . SVG Version: 6.00 Build 0)  -->
<svg version="1.1" id="Layer_1" xmlns="http://www.w3.org/2000/svg" xmlns:xlink="http://www.w3.org/1999/xlink" x="0px" y="0px"
	 viewBox="0 0 576 512" style="enable-background:new 0 0 576 512;" xml:space="preserve">
<style type="text/css">
	.st0{fill:#EBEEF1;}
</style>
<path class="st0" d="M517.5,168.6L139.2,2.3c-3.8-1.5-7.9-2.3-11.8-2.3c-11.2,0-22,5.9-27.8,16.1L4.2,183c-4.8,8.3-5.5,18-2.3,26.9
	c3.3,8.9,10.3,15.9,19.1,19.1l164.3,68l-42,111H48v-32c0-13.3-10.8-24-24-24S0,362.7,0,376v112c0,13.3,10.8,24,24,24s24-10.8,24-24
	v-32h112c9.1,0,19-6.2,22.5-15.5l47.2-125.2l75.7,31.3c3.6,1.3,7.3,2,11,2c5.9,0,11.7-1.6,16.8-4.8l189.2-118.4
	C544.7,211.5,541.7,178.3,517.5,168.6z M314.9,298.6l-260-107.5l79.2-138.6l337.2,148.3L314.9,298.6z M574.9,283.1
	c-1.6-4.2-4.9-7.5-8.1-9.4l-35.4-15.5L393,344.7l119.5,52.5c8.5,3.7,18.5-0.1,22.2-8.6l40.7-92.6
	C576.4,291.9,576.5,287.3,574.9,283.1z"/>
</svg>
