<?xml version="1.0" encoding="utf-8"?>
<!-- Generator: Adobe Illustrator 25.2.1, SVG Export Plug-In . SVG Version: 6.00 Build 0)  -->
<svg version="1.1" id="Layer_1" xmlns="http://www.w3.org/2000/svg" xmlns:xlink="http://www.w3.org/1999/xlink" x="0px" y="0px"
	 viewBox="0 0 576 512" style="enable-background:new 0 0 576 512;" xml:space="preserve">
<style type="text/css">
	.st0{fill:#EBEEF1;}
</style>
<path class="st0" d="M444.6,181.9c-10.3-8.3-25.4-6.9-33.8,3.4c-8.4,10.2-6.9,25.4,3.4,33.8c11.3,9.3,17.8,22.7,17.8,36.9
	c0,14.2-6.5,27.6-17.8,36.9c-10.3,8.4-11.8,23.5-3.4,33.8c4.7,5.8,11.6,8.8,18.6,8.8c5.3,0,10.8-1.8,15.2-5.4
	c22.5-18.5,35.4-45.4,35.4-74.1S467.1,200.4,444.6,181.9z M505.1,108c-10.2-8.3-25.3-6.9-33.8,3.3c-8.4,10.2-6.9,25.4,3.3,33.8
	C508.6,172.9,528,213.3,528,256s-19.4,83.1-53.3,110.9c-10.2,8.4-11.8,23.5-3.3,33.8c4.8,5.8,11.6,8.8,18.6,8.8
	c5.4,0,10.8-1.8,15.2-5.4c45.1-36.9,70.9-90.9,70.9-148S550.2,144.9,505.1,108z M333.2,34.8c-11.5-5.2-25-3.1-34.4,5.3L163.8,160H80
	c-26.5,0-48,21.5-48,47.1v95.1c0,26.5,21.5,47.1,48,47.1h83.8l134.9,119.9c6,8,13.6,10.8,21.3,10.8c4.4,0,9-0.9,13.2-2.8
	C344.7,472,352,460.6,352,448V64C352,51.4,344.7,39.1,333.2,34.8z"/>
</svg>
