<?xml version="1.0" encoding="utf-8"?>
<!-- Generator: Adobe Illustrator 25.2.1, SVG Export Plug-In . SVG Version: 6.00 Build 0)  -->
<svg version="1.1" id="Layer_1" xmlns="http://www.w3.org/2000/svg" xmlns:xlink="http://www.w3.org/1999/xlink" x="0px" y="0px"
	 viewBox="0 0 576 512" style="enable-background:new 0 0 576 512;" xml:space="preserve">
<style type="text/css">
	.st0{fill:#EBEEF1;}
</style>
<path class="st0" d="M512,0H64C28.6,0,0,28.6,0,64v288c0,35.4,28.6,64,64,64h148.3l-9.6,48H152c-13.2,0-24,10.8-24,24s10.8,24,24,24
	h272c13.2,0,24-10.8,24-24s-10.8-24-24-24h-50.7l-9.6-48H512c35.3,0,64-28.6,64-64V64C576,28.6,547.3,0,512,0z M324.3,464h-72.6
	l9.6-48h53.5L324.3,464z M528,352c0,8.8-7.2,16-16,16H64c-8.8,0-16-7.2-16-16V64c0-8.8,7.2-16,16-16h448c8.8,0,16,7.2,16,16V352z"/>
</svg>
