<?xml version="1.0" encoding="utf-8"?>
<!-- Generator: Adobe Illustrator 25.2.1, SVG Export Plug-In . SVG Version: 6.00 Build 0)  -->
<svg version="1.1" id="Layer_1" xmlns="http://www.w3.org/2000/svg" xmlns:xlink="http://www.w3.org/1999/xlink" x="0px" y="0px"
	 viewBox="0 0 640 512" style="enable-background:new 0 0 640 512;" xml:space="preserve">
<style type="text/css">
	.st0{fill:#EBEEF1;}
</style>
<path class="st0" d="M639.1,357.2c0-6.2-0.5-12.5-1.4-18.8l-27.5-181.3C603.5,107.4,581.8,32,319.1,32C57,32,36.4,106.9,28.8,157.1
	L1.5,338.4c-1,6.4-1.5,12.7-1.5,19C0,423.9,53.3,480,121.2,480c46.1-0.1,88.4-26.5,108.6-68l13.8-28h152.7l13.8,28
	c20.2,41.5,62.2,67.9,108.4,68C586.5,480,639.1,423.8,639.1,357.2z M591.1,357.2c0,18-6.4,35.5-18.3,49.5
	C559.2,422.8,539.1,432,518,432c-0.1,0-0.3,0-0.4,0c-27.8,0-52.8-15.8-65.2-41.1l-18.3-37c-4.5-11-15.6-17.9-27.8-17.9H233.7
	c-12.2,0-23.3,6.9-28.7,17.8l-18.3,37c-4.7,9.5-23.5,41.1-65.9,41.1c-21.1,0-41-9.4-54.6-25.4c-11.8-13.9-18.3-31.5-18.3-49.5
	c0-3.8,0.3-7.7,0.9-11.5l27.5-181.3c4.9-31.8,27.8-56.8,58.5-63.7C195.8,86.9,257.9,80,319.1,80s124.2,6.9,185.1,20.6
	c30.8,6.9,53.6,31.9,58.5,63.7l27.5,181.3C591.7,349.5,591.1,353.3,591.1,357.2z M399.1,240c-17.6,0-31.1,14.4-31.1,32
	s14.4,32,31.1,32s31.1-14.4,31.1-32S417.6,240,399.1,240z M247.1,200l-32,0l0-32c0-13.2-10.8-24-24-24c-12.3,0-24,10.8-24,24l0,32
	l-32,0c-13.2,0-24,10.8-24,24s10.8,24,24,24l32,0l0,32c0,13.2,10.8,24,24,24s24-10.8,24-24l0-32l32,0c13.2,0,24-10.8,24-24
	C271.1,210.8,261.2,200,247.1,200z M463.1,144c-17.6,0-31.1,14.4-31.1,32s14.4,32,31.1,32c17.6,0,31.1-14.4,31.1-32
	S481.6,144,463.1,144z"/>
</svg>
