<?xml version="1.0" encoding="utf-8"?>
<!-- Generator: Adobe Illustrator 25.2.1, SVG Export Plug-In . SVG Version: 6.00 Build 0)  -->
<svg version="1.1" id="Layer_1" xmlns="http://www.w3.org/2000/svg" xmlns:xlink="http://www.w3.org/1999/xlink" x="0px" y="0px"
	 viewBox="0 0 640 512" style="enable-background:new 0 0 640 512;" xml:space="preserve">
<style type="text/css">
	.st0{fill:#EBEEF1;}
</style>
<path class="st0" d="M352,400c0,8.8-7.2,16-16,16h-32c-8.8,0-16-7.2-16-16s7.2-16,16-16h32C344.8,384,352,391.2,352,400z M240,384
	h-48c-8.8,0-16,7.2-16,16c0,8.8,7.2,16,16,16h48c8.8,0,16-7.2,16-16S248.8,384,240,384z M172,260c0-37.5,30.5-68,68-68
	s68,30.5,68,68c0,37.5-30.5,68-68,68S172,297.5,172,260z M220,260c0,11,9,20,20,20c11.1,0,20-9,20-20c0-11.9-9-20-20-20
	C228.1,240,220,248.1,220,260z M468,260c0,37.5-30.6,67.1-68.1,67.1c0,0,0,0,0,0s0,0,0,0c-37.5,0-68.1-30.5-68.1-67.1
	c0-37.5,30.6-67.1,68.1-67.1c0,0,0,0,0,0s0,0,0,0C437.4,192,468,222.5,468,260z M419.9,260c0-11-8.9-19.9-19.9-20
	c-11.1,0.1-20,8.1-20,20c0,11,8.9,19.9,19.9,20C410.9,279.9,419.9,271,419.9,260z M448,384h-48c-8.8,0-16,7.2-16,16
	c0,8.8,7.2,16,16,16h48c8.8,0,16-7.2,16-16C464,391.2,456.8,384,448,384z M544,176v256c0,44.2-35.8,80-80,80H176
	c-44.2,0-80-35.8-80-80V176c0-44.2,35.8-80,80-80h120V24c0-13.2,10.8-24,24-24s24,10.8,24,24v72h120C508.2,96,544,131.8,544,176z
	 M496,176c0-17.6-14.4-32-32-32H176c-17.6,0-32,14.4-32,32v256c0,17.6,14.4,32,32,32h288c17.6,0,32-14.4,32-32V176z M592.1,192H576
	v192h16.1c17.7,0,31.9-14.3,31.9-32V224C624,206.3,609.7,192,592.1,192z M16,224v128c0,17.7,14.3,32,31.9,32H64V192H48
	C30.4,192,16,206.3,16,224z"/>
</svg>
