<?xml version="1.0" encoding="utf-8"?>
<!-- Generator: Adobe Illustrator 25.2.1, SVG Export Plug-In . SVG Version: 6.00 Build 0)  -->
<svg version="1.1" id="Layer_1" xmlns="http://www.w3.org/2000/svg" xmlns:xlink="http://www.w3.org/1999/xlink" x="0px" y="0px"
	 viewBox="0 0 512 512" style="enable-background:new 0 0 512 512;" xml:space="preserve">
<style type="text/css">
	.st0{fill:#EBEEF1;}
</style>
<path class="st0" d="M383.1,192c0-17.6-14.4-32-31.1-32c-17.6,0-31.1,14.4-31.1,32s14.4,32,31.1,32C369.6,224,383.1,209.6,383.1,192
	z M509.2,275c-20.1-47.1-48.5-151.8-73.1-186.8C397.6,33.6,334.5,0,266.1,0h-66C95.6,0,4.2,80.1,0.2,184.5
	c-2.2,59.9,23,113.6,63.9,150.4l0,153.1C64,501.3,74.8,512,88,512c13.2,0,23.1-10.7,23.1-23.1V313.4L96,299.1
	C49.1,257,33,187.4,63.9,126.6C89.3,76.8,143.1,48,198.1,48h67.1c51.1,0,100.9,25.4,130.7,67.9c11.2,15.9,27.1,65.6,40.4,102
	c7.4,19.3,13.8,37.9,19.9,54.1H400v112c0,8.8-7.2,16-16,16h-80v88c0,13.2,10.7,23.1,23.1,23.1c13.2,0,23.1-10.7,23.1-23.1v-40h31.1
	c35.3,0,63.1-28.6,63.1-63.1V320h31.1C503.1,320,518.6,296.1,509.2,275z"/>
</svg>
