<?xml version="1.0" encoding="utf-8"?>
<!-- Generator: Adobe Illustrator 25.2.1, SVG Export Plug-In . SVG Version: 6.00 Build 0)  -->
<svg version="1.1" id="Layer_1" xmlns="http://www.w3.org/2000/svg" xmlns:xlink="http://www.w3.org/1999/xlink" x="0px" y="0px"
	 viewBox="0 0 512 512" style="enable-background:new 0 0 512 512;" xml:space="preserve">
<style type="text/css">
	.st0{fill:#EBEEF1;}
</style>
<path class="st0" d="M255.1,223.1c-17.6,0-31.1,14.4-31.1,32s14.4,32,31.1,32s31.1-14.4,31.1-32S273.6,223.1,255.1,223.1z
	 M511.7,265.1C501,180.2,428.7,116,343.5,116c-14.2,0-28.4,1.1-42.5,3.6l7.7-77.1c1.1-11.8-3.1-23.4-11.6-31.6s-20.4-12.1-32-10.5
	C180.1,11,116,83.2,116,168.5c0,14.2,1.1,28.5,3.6,42.5l-77.1-7.8c-11.6-1.2-23.2,3-31.4,11.4c-8.4,8.5-12.4,20.5-10.9,32.2
	c10.8,85,83,149.1,168.2,149.1c14.2,0,28.4-1.1,42.5-3.6l-7.7,77.2c-1.2,11.6,3,23.2,11.4,31.4C222,508,231.8,512,242,512
	c1.6,0,3.4-0.1,5-0.2c84.9-10.8,148.1-83,148.1-168.3c0-14.2-1.1-28.4-3.6-42.5l77.1,7.9c11.6,1.1,23.2-3.1,31.4-11.5
	C509.2,288.9,513.2,276.1,511.7,265.1z M350.1,248.6c-11.7-1.2-20.7,10.3-16.6,21.4l4.3,12c6.7,18.6,10.2,39.4,10.2,61.6
	c0,57.2-40.5,106.5-95.9,118.6l11.3-112.1c1.2-11.7-10.3-20.7-21.4-16.6l-11.9,4.3c-18.6,6.9-39.4,10.2-61.6,10.2
	c-57.2,0-106.3-40.5-118.6-95.9l112,11.3c11.7,1.2,20.7-10.3,16.6-21.4l-4.3-11.9c-6.8-18.6-10.3-39.4-10.3-61.6
	c0-57.2,40.5-106.4,95.9-118.6l-11.2,112c-1.2,11.7,10.3,20.7,21.4,16.6l11.9-4.3c18.6-6.8,39.4-10.2,61.6-10.2
	c57.2,0,106.5,40.5,118.6,95.9L350.1,248.6z"/>
</svg>
