<?xml version="1.0" encoding="utf-8"?>
<!-- Generator: Adobe Illustrator 25.2.1, SVG Export Plug-In . SVG Version: 6.00 Build 0)  -->
<svg version="1.1" id="Layer_1" xmlns="http://www.w3.org/2000/svg" xmlns:xlink="http://www.w3.org/1999/xlink" x="0px" y="0px"
	 viewBox="0 0 640 512" style="enable-background:new 0 0 640 512;" xml:space="preserve">
<style type="text/css">
	.st0{fill:#EBEEF1;}
</style>
<path class="st0" d="M576,192c35.3,0,64-28.6,64-64s-28.7-64-64-64s-64,28.7-64,64C512,163.3,540.7,192,576,192z M576,384
	c-14.4,0-27.6,5-38.3,13l-81.9-49.1c5-13.8,8.2-28.4,8.2-43.9c0-19.7-4.8-38.1-12.7-54.8l42.9-31.5c10.7-7.8,13-22.8,5.2-33.5
	c-7.8-10.7-22.8-13.1-33.5-5.2l-42.9,31.5C400.1,189.3,369.7,176,336,176c-10.8,0-21.2,1.8-31.2,4.3l-34-72.9
	C281.4,96,288,80.8,288,64c0-35.3-28.6-64-64-64s-64,28.6-64,64s28.6,64,64,64c1.1,0,2.1-0.3,3.2-0.3l34,72.8
	C229.1,223.8,208,261.3,208,304c0,70.7,57.3,128,128,128c37.9,0,71.6-16.8,95-43l81.9,49.2c-0.5,3.2-1,6.4-1,9.8
	c0,35.4,28.7,64,64,64s64-28.7,64-64S611.3,384,576,384z M336,384c-44.1,0-80-35.9-80-80s35.9-80,80-80s80,35.9,80,80
	S380.1,384,336,384z M152,280h-28.7c-9.5-23.4-32.5-40-59.3-40c-35.3,0-64,28.6-64,64s28.6,64,64,64c26.8,0,49.8-16.6,59.2-40H152
	c13.2,0,24-10.8,24-24S165.3,280,152,280z"/>
</svg>
