<?xml version="1.0" encoding="utf-8"?>
<!-- Generator: Adobe Illustrator 25.2.1, SVG Export Plug-In . SVG Version: 6.00 Build 0)  -->
<svg version="1.1" id="Layer_1" xmlns="http://www.w3.org/2000/svg" xmlns:xlink="http://www.w3.org/1999/xlink" x="0px" y="0px"
	 viewBox="0 0 576 512" style="enable-background:new 0 0 576 512;" xml:space="preserve">
<style type="text/css">
	.st0{fill:#EBEEF1;}
</style>
<path class="st0" d="M368,336h-32c-8.9,0-16,7.1-16,16v32c0,8.9,7.1,16,16,16h32c8.9,0,16-7.1,16-16v-32
	C384,343.1,376.9,336,368,336z M320,256v32c0,8.9,7.1,16,16,16h32c8.9,0,16-7.1,16-16v-32c0-8.9-7.1-16-16-16h-32
	C327.1,240,320,247.1,320,256z M432,400h32c8.9,0,16-7.1,16-16v-32c0-8.9-7.1-16-16-16h-32c-8.9,0-16,7.1-16,16v32
	C416,392.9,423.1,400,432,400z M432,304h32c8.9,0,16-7.1,16-16v-32c0-8.9-7.1-16-16-16h-32c-8.9,0-16,7.1-16,16v32
	C416,296.9,423.1,304,432,304z M512,32H269c-6.5-18.6-24.1-32-45-32h-80c-20.9,0-38.5,13.4-45,32H64C28.6,32,0,60.6,0,96v352
	c0,35.4,28.6,64,64,64h448c35.4,0,64-28.6,64-64V96C576,60.6,547.4,32,512,32z M144,48h80v320h-80V48z M528,448c0,8.9-7.1,16-16,16
	H64c-8.9,0-16-7.1-16-16V96c0-8.9,7.1-16,16-16h32v288c0,26.5,21.5,48,48,48h80c26.5,0,48-21.5,48-48V80h48v72c0,22,17.1,40,40,40
	h168V448z M528,144H368V80h144c8.9,0,16,7.1,16,16V144z"/>
</svg>
