<?xml version="1.0" encoding="utf-8"?>
<!-- Generator: Adobe Illustrator 25.2.1, SVG Export Plug-In . SVG Version: 6.00 Build 0)  -->
<svg version="1.1" id="Layer_1" xmlns="http://www.w3.org/2000/svg" xmlns:xlink="http://www.w3.org/1999/xlink" x="0px" y="0px"
	 viewBox="0 0 448 512" style="enable-background:new 0 0 448 512;" xml:space="preserve">
<style type="text/css">
	.st0{fill:#EBEEF1;}
</style>
<path class="st0" d="M384,0H64C28.6,0,0,28.6,0,64v304c0,23.6,12.9,44,32,55.1V480c0,17.7,14.3,32,32,32h320c17.7,0,32-14.3,32-32
	v-56.9c19-11.1,32-31.5,32-55.1V64C448,28.6,419.3,0,384,0z M368,464H80v-32h288V464z M400,368c0,8.8-7.2,16-16,16H64
	c-8.8,0-16-7.2-16-16V64c0-8.8,7.2-16,16-16h320c8.8,0,16,7.2,16,16V368z M336,80H112c-17.7,0-32,14.3-32,32v96
	c0,17.7,14.3,32,32,32h224c17.7,0,31.1-14.3,31.1-32l0.9-96C368,94.3,353.7,80,336,80z M120,304c-13.3,0-24,10.7-24,24
	s10.7,24,24,24s24-10.8,24-24C144,314.7,133.3,304,120,304z M352,304H224c-8.8,0-16,7.2-16,16s7.2,16,16,16h128c8.8,0,16-7.2,16-16
	S360.8,304,352,304z"/>
</svg>
