<?xml version="1.0" encoding="utf-8"?>
<!-- Generator: Adobe Illustrator 25.2.1, SVG Export Plug-In . SVG Version: 6.00 Build 0)  -->
<svg version="1.1" id="Layer_1" xmlns="http://www.w3.org/2000/svg" xmlns:xlink="http://www.w3.org/1999/xlink" x="0px" y="0px"
	 viewBox="0 0 640 512" style="enable-background:new 0 0 640 512;" xml:space="preserve">
<style type="text/css">
	.st0{fill:#EBEEF1;}
</style>
<path class="st0" d="M128,176c0,26.5,21.5,48,48,48s48-21.5,48-48s-21.5-48-48-48S128,149.5,128,176z M122.2,223.4
	c-10.5-11.7-18.2-29-18.2-47.4c0-39.8,32.2-72,71.1-72s72.9,32.2,72.9,71.1c0,1.6-0.4,3.1-0.6,4.7l25.1-22.3l30.7-94.6
	c0.4-1.3,0.7-2.6,0.7-3.9c0-5.5-4.5-11.8-11.9-11.8c-1.3,0-2.5,0.2-3.8,0.6l-69,22.1L186.6,6.6c-2-4.1-6.1-6.6-10.6-6.6
	s-8.6,2.5-10.6,6.6l-32.5,65.1l-69.1-23c-1.3-0.4-2.6-0.7-3.9-0.7c-3.1,0-6.1,1.2-8.3,3.5c-2.3,2.2-3.6,5.3-3.6,8.4
	c0,1.2,0.2,2.5,0.6,3.7l23,68.1l-65,32.6c-4.1,2.9-6.6,7-6.6,10.6s2.5,8.6,6.6,10.6l65.1,32.5l-23,69.1c-0.4,2.1-0.7,3.4-0.7,4.8
	c0,4.5,3.5,11.9,12,11.9c1.2,0,2.5-0.2,3.7-0.6l75.4-24.8c2.2-3,4.8-5.8,7.7-8.4l25.4-22.6C152.3,246.5,134.6,237.4,122.2,223.4z
	 M351.1,311.1V360c0,13.2,10.7,24,24,24h48c13.2,0,24-10.8,24-24v-48.9c0-13.3-10.8-24-24-24h-48
	C362.8,287.1,351.1,298.8,351.1,311.1z M631.9,294.1l-216-192c-4.5-4-10.2-6.1-15.9-6.1c-5.7,0-11.4,2-16,6.1l-216,192
	c-5.3,4.7-8,11.1-8,17.8c0,13.2,10.7,24.1,24,24.1c5.7,0,11.4-2,15.9-6.1l24.1-21.4l0,155.4c0,26.5,21.5,48,48,48h255.1
	c26.5,0,48-21.5,48-48l0.9-155.4l24.1,21.4c4.5,4,10.2,6,15.9,6c13.2,0,24-10.9,24-24.1C640,305.2,637.3,298.8,631.9,294.1z
	 M528,464H272V265.9l128-113.8l128,113.8V464z"/>
</svg>
