<?xml version="1.0" encoding="utf-8"?>
<!-- Generator: Adobe Illustrator 25.2.1, SVG Export Plug-In . SVG Version: 6.00 Build 0)  -->
<svg version="1.1" id="Layer_1" xmlns="http://www.w3.org/2000/svg" xmlns:xlink="http://www.w3.org/1999/xlink" x="0px" y="0px"
	 viewBox="0 0 512 512" style="enable-background:new 0 0 512 512;" xml:space="preserve">
<style type="text/css">
	.st0{fill:#EBEEF1;}
</style>
<path class="st0" d="M232.1,256c0-8.8-7.2-16-15.9-16h-16c-8.8,0-16.1,7.3-16.1,16l0.1,16c0,8.8,7.2,16,16,16h16c8.8,0,16-7.2,16-16
	L232.1,256z M168.1,304h-16c-8.8,0-16,7.2-16,16l-0.1,16c0,8.8,7.3,16,16.1,16h16c8.8,0,15.9-7.2,15.9-16l0.1-16
	C184.1,311.3,176.9,304,168.1,304z M264.1,304h-16c-8.8,0-16,7.2-16,16l-0.1,16c0,8.8,7.3,16,16.1,16h16c8.8,0,15.9-7.2,15.9-16
	l0.1-16C280.1,311.3,272.9,304,264.1,304z M136.1,256c0-8.8-7.2-16-15.9-16h-16c-8.8,0-16.1,7.3-16.1,16l0.1,16c0,8.8,7.2,16,16,16
	h16c8.8,0,16-7.2,16-16L136.1,256z M511.3,378.8L487.9,215c-4.5-31.5-31.5-54.9-63.3-54.9l-224.4,0.1v-32l87.9,0
	c17.6,0,32-14.4,32-32V32c0-17.6-14.4-32-32-32h-224c-17.6,0-32,14.4-32,32v64c0,17.6,14.4,32,32,32l88,0v32l-64.5-0.9
	c-31.8,0-58.9,24.3-63.4,55.8L0.6,379.5c-0.4,3-0.6,6-0.6,9V480c0,17.7,14.3,32,31.1,32h448c17.7,0,31.1-14.3,31.1-32l1.8-92.1
	C512,384.8,511.7,381.8,511.3,378.8z M80.1,80V48h191.1v32H80.1z M71.7,221.7c1.1-7.9,7.9-13.8,15.8-13.8l336.1,0.1
	c7.9,0,14.7,5.9,15.8,13.7L463.6,384H48.5L71.7,221.7z M464,464H48v-32h416V464z M328.1,256c0-8.8-7.2-16-15.9-16h-16
	c-8.8,0-16.1,7.2-16.1,16l0.1,16c0,8.8,7.2,16,16,16h16c8.8,0,16-7.2,16-16L328.1,256z M408.1,240h-16c-8.8,0-16.1,7.2-16.1,16
	l0.1,16c0,8.8,7.2,16,16,16h16c8.8,0,16-7.2,16-16l0-16C424.1,247.3,416.9,240,408.1,240z M360.1,304h-16c-8.8,0-16,7.2-16,16
	l-0.1,16c0,8.8,7.3,16,16.1,16h16c8.8,0,15.9-7.2,15.9-16l0.1-16C376.1,311.3,368.9,304,360.1,304z"/>
</svg>
