<?xml version="1.0" encoding="utf-8"?>
<!-- Generator: Adobe Illustrator 25.2.1, SVG Export Plug-In . SVG Version: 6.00 Build 0)  -->
<svg version="1.1" id="Layer_1" xmlns="http://www.w3.org/2000/svg" xmlns:xlink="http://www.w3.org/1999/xlink" x="0px" y="0px"
	 viewBox="0 0 384 512" style="enable-background:new 0 0 384 512;" xml:space="preserve">
<style type="text/css">
	.st0{fill:#EBEEF1;}
</style>
<path class="st0" d="M162.1,257.8c-7.8-7.8-20.5-7.8-28.3,0l-48,48c-7.8,7.8-7.8,20.5,0,28.3l48,48c4,4,9.1,5.9,14.2,5.9
	s10.2-1.9,14.1-5.8c7.8-7.8,7.8-20.5,0-28.3L128.3,320l33.9-33.8C169.1,278.3,169.1,265.7,162.1,257.8z M365.3,93.4l-74.6-74.6
	C278.6,6.7,262.3,0,245.4,0H64C28.6,0,0,28.6,0,64l0,384c0,35.3,28.6,64,64,64h256c35.2,0,64-28.8,64-64V138.6
	C384,121.7,377.3,105.4,365.3,93.4z M336,448c0,8.8-7.2,16-16,16H64c-8.8,0-16-7.2-16-16l0-383.9c0-8.8,7.2-16,16-16h160V128
	c0,17.7,14.3,32,32,32h79.1v288H336z M221.9,257.8c-7.8,7.8-7.8,20.5,0,28.3l33.8,33.9l-33.9,33.8c-7.8,7.8-7.8,20.5,0,28.3
	c4,4,9.1,5.9,14.2,5.9s10.2-1.9,14.1-5.8l48-48c7.8-7.8,7.8-20.5,0-28.3l-48-48C242.3,250,229.7,250,221.9,257.8z"/>
</svg>
