<?xml version="1.0" encoding="utf-8"?>
<!-- Generator: Adobe Illustrator 25.2.1, SVG Export Plug-In . SVG Version: 6.00 Build 0)  -->
<svg version="1.1" id="Layer_1" xmlns="http://www.w3.org/2000/svg" xmlns:xlink="http://www.w3.org/1999/xlink" x="0px" y="0px"
	 viewBox="0 0 384 512" style="enable-background:new 0 0 384 512;" xml:space="preserve">
<style type="text/css">
	.st0{fill:#EBEEF1;}
</style>
<path class="st0" d="M312,24c0-13.2-10.8-24-24-24s-24,10.8-24,24v88h48V24z M120,24c0-13.2-10.8-24-24-24S72,10.8,72,24v88h48V24z
	 M360,144H23.1C10.8,144,0,154.7,0,167.1S10.8,192,23.1,192H32v64c0,80.1,59.1,145.9,136,157.6V488c0,13.3,10.7,24,24,24
	s24-10.8,24-23.1v-74.4c76.9-12.6,136-78.4,136-158.5v-64h8c13.3,0,24-10.7,24-24S373.3,144,360,144z M304,256
	c0,61.9-50.1,112-112,112S80,317.9,80,256v-64h224V256z"/>
</svg>
